<?xml version="1.0" encoding="UTF-8"?><svg xmlns="http://www.w3.org/2000/svg" viewBox="0 0 1200 513.85"><defs><style>.d{fill:#403f3e;}</style></defs><g id="a"/><g id="b"><g id="c"><g><g><path class="d" d="M275.28,140.96v27.03h52.9v34.42h-52.9v29.57h59.83v36.27h-105.34V104.69h105.34v36.27h-59.83Z"/><path class="d" d="M436.29,268.25l-33.03-60.29h-4.62v60.29h-45.51V104.69h71.84c13.09,0,24.22,2.27,33.38,6.81,9.16,4.54,16.05,10.82,20.67,18.83,4.62,8.01,6.93,17.02,6.93,27.03,0,11.4-3.16,21.29-9.47,29.68-6.32,8.4-15.4,14.29-27.26,17.67l37.19,63.53h-50.13Zm-37.65-90.79h22.41c12.63,0,18.94-5.7,18.94-17.1,0-5.39-1.58-9.62-4.74-12.71-3.16-3.08-7.89-4.62-14.21-4.62h-22.41v34.42Z"/><path class="d" d="M608.16,240.99h-57.98l-9.01,27.26h-47.82l59.83-162.86h52.44l59.6,162.86h-48.05l-9.01-27.26Zm-11.32-34.19l-17.56-53.13-17.79,53.13h35.34Z"/><path class="d" d="M777.83,110.81c11.01,5.16,19.98,12.47,26.91,21.95,6.93,9.47,11.63,20.44,14.09,32.92h-47.82c-2.62-6.47-6.7-11.51-12.25-15.13-5.54-3.62-11.94-5.43-19.17-5.43-10.01,0-18.1,3.74-24.26,11.2-6.16,7.47-9.24,17.44-9.24,29.92s3.08,22.49,9.24,30.03c6.16,7.55,14.24,11.32,24.26,11.32,7.24,0,13.63-1.85,19.17-5.54,5.55-3.7,9.62-8.78,12.25-15.25h47.82c-3.7,19.1-12.44,34.31-26.22,45.63-13.79,11.32-31.23,16.98-52.32,16.98-16.17,0-30.3-3.5-42.39-10.51-12.09-7.01-21.41-16.82-27.95-29.45-6.55-12.63-9.82-27.03-9.82-43.2s3.27-30.57,9.82-43.2c6.54-12.63,15.86-22.44,27.95-29.45,12.09-7.01,26.22-10.51,42.39-10.51,14.01,0,26.53,2.58,37.54,7.74Z"/><path class="d" d="M881.21,104.69v163.55h-45.51V104.69h45.51Z"/><path class="d" d="M1031.13,104.69v36.27h-44.12v127.29h-45.28v-127.29h-43.66v-36.27h133.06Z"/><path class="d" d="M1200,104.69l-57.75,111.58v51.98h-45.28v-51.98l-57.75-111.58h51.98l28.88,62.37,28.65-62.37h51.28Z"/></g><rect class="d" x="48.46" y="465.85" width="1151.54" height="48.01"/><g><polygon class="d" points="249.94 0 152.63 269.4 96.92 269.4 48.46 134.7 94.14 134.7 124.78 222.85 202.62 0 249.94 0"/><polygon class="d" points="49.66 6.74 2.43 6.74 0 0 47.32 0 49.66 6.74"/><polygon class="d" points="54.34 20.21 7.27 20.21 12.12 33.68 59.03 33.68 54.34 20.21"/><polygon class="d" points="63.71 47.15 16.96 47.15 26.65 74.08 73.07 74.08 63.71 47.15"/><polygon class="d" points="89.46 121.23 43.62 121.23 31.5 87.55 77.75 87.55 89.46 121.23"/></g><g><path class="d" d="M130.43,330.95c7.83,5.78,13.01,13.66,15.53,23.64h-16.78c-2.15-5.31-5.66-9.56-10.56-12.73-4.9-3.17-10.7-4.76-17.41-4.76-6.16,0-11.68,1.45-16.58,4.34-4.9,2.89-8.72,6.99-11.47,12.31-2.75,5.31-4.13,11.56-4.13,18.74,0,7.55,1.4,14.04,4.2,19.44,2.8,5.41,6.74,9.54,11.82,12.38,5.08,2.85,10.98,4.27,17.69,4.27,8.2,0,15.25-2.54,21.12-7.62,5.87-5.08,9.42-12.05,10.63-20.91h-36.23v-11.75h49.65v15.25c-1.12,7.27-3.71,13.87-7.76,19.79-4.06,5.92-9.42,10.65-16.09,14.2-6.67,3.55-14.29,5.31-22.87,5.31-9.61,0-18.09-2.14-25.46-6.43-7.37-4.29-13.06-10.23-17.06-17.83-4.01-7.6-6.01-16.29-6.01-26.09s2-18.48,6.01-26.09c4.01-7.6,9.67-13.52,16.99-17.76,7.32-4.24,15.78-6.36,25.39-6.36,11.75,0,21.54,2.89,29.37,8.67Z"/><path class="d" d="M214.21,421.87l-24.62-39.44h-11.33v39.44h-15.94v-98.75h34.83c11.28,0,19.84,2.75,25.67,8.25,5.83,5.5,8.74,12.78,8.74,21.82,0,7.74-2.17,14.08-6.5,19.02-4.34,4.94-10.61,8.11-18.81,9.51l25.88,40.14h-17.9Zm-35.95-50.77h17.62c12.87,0,19.3-5.69,19.3-17.07,0-5.41-1.56-9.63-4.68-12.66-3.13-3.03-8-4.55-14.62-4.55h-17.62v34.27Z"/><path class="d" d="M314.85,328.29c7.41,4.29,13.24,10.28,17.48,17.97,4.24,7.69,6.36,16.39,6.36,26.09s-2.12,18.39-6.36,26.09c-4.24,7.69-10.07,13.71-17.48,18.04-7.41,4.34-15.69,6.5-24.83,6.5s-17.55-2.17-24.97-6.5c-7.41-4.34-13.27-10.35-17.55-18.04-4.29-7.69-6.43-16.39-6.43-26.09s2.14-18.39,6.43-26.09c4.29-7.69,10.14-13.68,17.55-17.97,7.41-4.29,15.73-6.43,24.97-6.43s17.41,2.15,24.83,6.43Zm-41.75,12.73c-4.94,2.89-8.79,7.04-11.54,12.45-2.75,5.41-4.13,11.7-4.13,18.88s1.37,13.48,4.13,18.88c2.75,5.41,6.6,9.56,11.54,12.45,4.94,2.89,10.58,4.34,16.92,4.34s11.82-1.44,16.71-4.34c4.9-2.89,8.72-7.04,11.47-12.45,2.75-5.41,4.13-11.7,4.13-18.88s-1.38-13.47-4.13-18.88c-2.75-5.41-6.57-9.56-11.47-12.45-4.9-2.89-10.47-4.34-16.71-4.34s-11.98,1.45-16.92,4.34Z"/><path class="d" d="M368.35,323.12v58.61c0,8.77,1.94,15.29,5.81,19.58,3.87,4.29,9.3,6.43,16.29,6.43s12.28-2.14,16.15-6.43c3.87-4.29,5.81-10.82,5.81-19.58v-58.61h15.94v58.61c0,13.52-3.5,23.76-10.49,30.7-6.99,6.95-16.23,10.42-27.7,10.42s-20.51-3.47-27.41-10.42c-6.9-6.95-10.35-17.18-10.35-30.7v-58.61h15.94Z"/><path class="d" d="M461.22,383.54v38.32h-15.95v-98.75h33.57c11.37,0,19.93,2.71,25.67,8.11,5.73,5.41,8.6,12.82,8.6,22.24s-2.94,16.67-8.81,22.03c-5.87,5.36-14.36,8.04-25.46,8.04h-17.62Zm35.67-30.07c0-5.59-1.56-9.86-4.69-12.8-3.13-2.94-8.14-4.41-15.04-4.41h-15.94v34.27h15.94c13.15,0,19.72-5.69,19.72-17.06Z"/></g></g></g></g></svg>